/* XPM */
static char * connect_xpm[] = {
"16 16 256 2",
"   c #000000",
" * c #800000",
" . c #008000",
" o c #808000",
" # c #000080",
" + c #800080",
" @ c #008080",
" O c #C0C0C0",
" $ c #C0DCC0",
" 8 c #A6CAF0",
" 1 c #000033",
" u c #330000",
" g c #330033",
" c c #003333",
" m c #161616",
" s c #1C1C1C",
"*  c #222222",
"** c #292929",
"*. c #555555",
"*o c #4D4D4D",
"*# c #424242",
"*+ c #393939",
"*@ c #FF7C80",
"*O c #FF5050",
"*$ c #D60093",
"*8 c #CCECFF",
"*1 c #EFD6C6",
"*u c #E7E7D6",
"*g c #ADA990",
"*c c #33FF00",
"*m c #660000",
"*s c #990000",
".  c #CC0000",
".* c #003300",
".. c #333300",
".o c #663300",
".# c #993300",
".+ c #CC3300",
".@ c #FF3300",
".O c #006600",
".$ c #336600",
".8 c #666600",
".1 c #996600",
".u c #CC6600",
".g c #FF6600",
".c c #009900",
".m c #339900",
".s c #669900",
"o  c #999900",
"o* c #CC9900",
"o. c #FF9900",
"oo c #00CC00",
"o# c #33CC00",
"o+ c #66CC00",
"o@ c #99CC00",
"oO c #CCCC00",
"o$ c #FFCC00",
"o8 c #66FF00",
"o1 c #99FF00",
"ou c #CCFF00",
"og c #00FF33",
"oc c #3300FF",
"om c #660033",
"os c #990033",
"#  c #CC0033",
"#* c #FF0033",
"#. c #0033FF",
"#o c #333333",
"## c #663333",
"#+ c #993333",
"#@ c #CC3333",
"#O c #FF3333",
"#$ c #006633",
"#8 c #336633",
"#1 c #666633",
"#u c #996633",
"#g c #CC6633",
"#c c #FF6633",
"#m c #009933",
"#s c #339933",
"+  c #669933",
"+* c #999933",
"+. c #CC9933",
"+o c #FF9933",
"+# c #00CC33",
"++ c #33CC33",
"+@ c #66CC33",
"+O c #99CC33",
"+$ c #CCCC33",
"+8 c #FFCC33",
"+1 c #33FF33",
"+u c #66FF33",
"+g c #99FF33",
"+c c #CCFF33",
"+m c #FFFF33",
"+s c #000066",
"@  c #330066",
"@* c #660066",
"@. c #990066",
"@o c #CC0066",
"@# c #FF0066",
"@+ c #003366",
"@@ c #333366",
"@O c #663366",
"@$ c #993366",
"@8 c #CC3366",
"@1 c #FF3366",
"@u c #006666",
"@g c #336666",
"@c c #666666",
"@m c #996666",
"@s c #CC6666",
"O  c #009966",
"O* c #339966",
"O. c #669966",
"Oo c #999966",
"O# c #CC9966",
"O+ c #FF9966",
"O@ c #00CC66",
"OO c #33CC66",
"O$ c #99CC66",
"O8 c #CCCC66",
"O1 c #FFCC66",
"Ou c #00FF66",
"Og c #33FF66",
"Oc c #99FF66",
"Om c #CCFF66",
"Os c #FF00CC",
"$  c #CC00FF",
"$* c #009999",
"$. c #993399",
"$o c #990099",
"$# c #CC0099",
"$+ c #000099",
"$@ c #333399",
"$O c #660099",
"$$ c #CC3399",
"$8 c #FF0099",
"$1 c #006699",
"$u c #336699",
"$g c #663399",
"$c c #996699",
"$m c #CC6699",
"$s c #FF3399",
"8  c #339999",
"8* c #669999",
"8. c #999999",
"8o c #CC9999",
"8# c #FF9999",
"8+ c #00CC99",
"8@ c #33CC99",
"8O c #66CC66",
"8$ c #99CC99",
"88 c #CCCC99",
"81 c #FFCC99",
"8u c #00FF99",
"8g c #33FF99",
"8c c #66CC99",
"8m c #99FF99",
"8s c #CCFF99",
"1  c #FFFF99",
"1* c #0000CC",
"1. c #330099",
"1o c #6600CC",
"1# c #9900CC",
"1+ c #CC00CC",
"1@ c #003399",
"1O c #3333CC",
"1$ c #6633CC",
"18 c #9933CC",
"11 c #CC33CC",
"1u c #FF33CC",
"1g c #0066CC",
"1c c #3366CC",
"1m c #666699",
"1s c #9966CC",
"u  c #CC66CC",
"u* c #FF6699",
"u. c #0099CC",
"uo c #3399CC",
"u# c #6699CC",
"u+ c #9999CC",
"u@ c #CC99CC",
"uO c #FF99CC",
"u$ c #00CCCC",
"u8 c #33CCCC",
"u1 c #66CCCC",
"uu c #99CCCC",
"ug c #CCCCCC",
"uc c #FFCCCC",
"um c #00FFCC",
"us c #33FFCC",
"g  c #66FF99",
"g* c #99FFCC",
"g. c #CCFFCC",
"go c #FFFFCC",
"g# c #3300CC",
"g+ c #6600FF",
"g@ c #9900FF",
"gO c #0033CC",
"g$ c #3333FF",
"g8 c #6633FF",
"g1 c #9933FF",
"gu c #CC33FF",
"gg c #FF33FF",
"gc c #0066FF",
"gm c #3366FF",
"gs c #6666CC",
"c  c #9966FF",
"c* c #CC66FF",
"c. c #FF66CC",
"co c #0099FF",
"c# c #3399FF",
"c+ c #6699FF",
"c@ c #9999FF",
"cO c #CC99FF",
"c$ c #FF99FF",
"c8 c #00CCFF",
"c1 c #33CCFF",
"cu c #66CCFF",
"cg c #99CCFF",
"cc c #CCCCFF",
"cm c #FFCCFF",
"cs c #33FFFF",
"m  c #66FFCC",
"m* c #99FFFF",
"m. c #CCFFFF",
"mo c #FF6666",
"m# c #66FF66",
"m+ c #FFFF66",
"m@ c #6666FF",
"mO c #FF66FF",
"m$ c #66FFFF",
"m8 c #A50021",
"m1 c #5F5F5F",
"mu c #777777",
"mg c #868686",
"mc c #969696",
"mm c #CBCBCB",
"ms c #B2B2B2",
"s  c #D7D7D7",
"s* c #DDDDDD",
"s. c #E3E3E3",
"so c #EAEAEA",
"s# c #F1F1F1",
"s+ c #F8F8F8",
"s@ c #FFFBF0",
"sO c #A0A0A4",
"s$ c #808080",
"s8 c #FF0000",
"s1 c #00FF00",
"su c #FFFF00",
"sg c #0000FF",
"sc c #FF00FF",
"sm c #00FFFF",
"ss c #FFFFFF",
"ssssssssssssssssssssssss.u.u.uss",
"ssssssssssssssssssss.u.uO1.u.uss",
"ssss1m1m1m1m1m1mssss.u+.ssO1.uss",
"ssss1m 8*.@cs$1m@c1mss.uo*.ussss",
"ssss1mm1 Osss+*8cc1m$u.g.ussssss",
"ssss1m1msssocc 81mmc$u@cssssssss",
"ssss1m1mss*8u+musoso*81m1mssssss",
"ssss1m1msscc@css*8cccccc@cssssss",
"ssssssm1ss1ms+s#cccc 8cc1m1mssss",
"ssssss1m1mu#sssocccc 8cc1m1mssss",
"ssssssss#u##s+sscccccccc1m1mssss",
"ssssss.u+o.u1c*8sss#cc1m@c1mssss",
"ssss.us@O1.u.u$u@c1m@c@c 81m1mss",
"ssss.u.uss.ussssss1mss1m1mu+1mss",
"ssssss.u.u.ussssssssssss1m1m1mss",
"ssss.u.u.ussssssssssssssssssssss"};
